<svg width="32" height="32" viewBox="0 0 32 32" fill="none" xmlns="http://www.w3.org/2000/svg">
<g clip-path="url(#clip0_1807_12846)">
<path d="M14.9346 28.2237C14.8715 28.3639 14.6822 28.6894 14.301 28.6894H6.67127C6.64476 28.6885 6.61001 28.6858 6.5707 28.6858C5.73687 28.6849 5.22396 27.9895 5.04293 27.6919L0.246583 17.1365C-0.279131 15.742 0.19264 14.5791 0.235612 14.4778L0.242012 14.4633L4.67173 4.71094L10.12 16.6997L10.5332 17.6059L13.0667 23.1784H13.064L14.3019 25.8986L14.9364 27.2922C15.1266 27.7118 14.9995 28.0826 14.9355 28.2228L14.9346 28.2237Z" fill="#F0F0F5"/>
<path d="M31.7638 17.5222L31.7574 17.5367L27.3277 27.289L21.8794 15.3002L21.4653 14.395L17.6975 6.10133L17.0639 4.70684C16.8728 4.28633 16.9999 3.91645 17.0639 3.77628C17.1279 3.63611 17.3162 3.31055 17.6984 3.31055H25.3391C25.3674 3.31145 25.3958 3.31326 25.4287 3.31326C26.2616 3.31416 26.7754 4.0105 26.9565 4.30803L31.7528 14.8635C32.2785 16.257 31.8077 17.42 31.7638 17.5222Z" fill="#F0F0F5"/>
<path d="M12.5753 3.31055H6.42578L10.1058 11.4089L10.861 13.0702L13.4749 7.31857L13.9357 6.3039C14.5401 4.97362 13.7849 3.31055 12.5753 3.31055Z" fill="#F0F0F5"/>
<path d="M19.4052 28.6893H25.5547L21.8747 20.591L21.1195 18.9297L18.5056 24.6813L18.0448 25.6959C17.4404 27.0262 18.1956 28.6893 19.4052 28.6893Z" fill="#F0F0F5"/>
</g>
<defs>
<clipPath id="clip0_1807_12846">
<rect width="32" height="25.3793" fill="white" transform="translate(0 3.31055)"/>
</clipPath>
</defs>
</svg>
